<svg id="Layer_1" data-name="Layer 1" xmlns="http://www.w3.org/2000/svg" xmlns:xlink="http://www.w3.org/1999/xlink" viewBox="0 0 144 144"><defs><style>.cls-1{fill:url(#linear-gradient);}.cls-2{fill:#fff;}</style><linearGradient id="linear-gradient" x1="70.5" y1="24" x2="70.5" y2="123" gradientUnits="userSpaceOnUse"><stop offset="0.48" stop-color="#ffd841"/><stop offset="0.98" stop-color="#fab82c"/></linearGradient></defs><title>family days app icon 1</title><rect class="cls-1" x="21" y="24" width="99" height="99"/><path class="cls-2" d="M89.14,55.6h0a3.44,3.44,0,0,0-3.53,2.75,18.6,18.6,0,0,1-8.68,11.33l-.17-.08a7.53,7.53,0,1,0-8.79,0l-.17.08a18.6,18.6,0,0,1-8.68-11.33,3.44,3.44,0,0,0-3.53-2.75h0c-1.63.21-2.84,2.36-2.24,4.59A24.27,24.27,0,0,0,64.71,74.65c0,.16.29.33.29.49v27.7c0,1.68.6,3.16,2.28,3.16h.11c1.68,0,3.61-1.48,3.61-3.16v-9.1a2,2,0,0,1,4,0v9.1c0,1.68.71,3.16,2.39,3.16H77.3a2.87,2.87,0,0,0,2.7-3.16V75.14c0-.17.16-.33.15-.49A23.92,23.92,0,0,0,91.29,60.18C91.89,58,90.77,55.8,89.14,55.6ZM77.78,78.84,75.66,80.4a.79.79,0,0,0-.28.88l.79,2.51a.79.79,0,0,1-1.22.88l-2.14-1.53a.79.79,0,0,0-.92,0l-2.14,1.53a.79.79,0,0,1-1.22-.88l.79-2.51A.79.79,0,0,0,69,80.4l-2.12-1.56a.79.79,0,0,1,.46-1.43l2.63,0a.79.79,0,0,0,.75-.54l.83-2.5a.79.79,0,0,1,1.5,0l.83,2.5a.79.79,0,0,0,.75.54l2.63,0A.79.79,0,0,1,77.78,78.84Z"/><path class="cls-2" d="M47.85,44.38c.13-.06.5-.28.55,0a10.6,10.6,0,0,1-.4,2.15c-.17.09-.62-.33-1.62.2a2.08,2.08,0,0,0-1,2.39c.18.7.27.91.56.75.64-.35.56-.94,1.9-1.62.11-.06.34-.17.39,0a9.16,9.16,0,0,1-.11,2.19,3,3,0,0,0-.79.22,1.84,1.84,0,0,0-.89,2.27,21.24,21.24,0,0,0,1.09,2.58c0,.14-.2.23-.28.28l-1.09.63c-.23.14-.44.52-1.66-3.82-1.6-5.73-1-5.84-.84-5.94Q45.69,45.42,47.85,44.38Z"/><path class="cls-2" d="M51.9,48c.29-.18.51-.34.43-.74a.8.8,0,0,0-1.19-.53c-1.06.45-.68,1.42-.91,1.52s-.78-.15-.89-.67a2.23,2.23,0,0,1,1.51-2.27,1.91,1.91,0,0,1,2.62.76,34.2,34.2,0,0,1,1.07,4.63c.09.53.23.82.3,1.23,0,.25-.88.61-1.75,1-2.34,1-2.82-.37-3-1.1A3.9,3.9,0,0,1,51.9,48Zm1,1.86c-.08-.42-.11-1-.6-.76A1.77,1.77,0,0,0,51.39,51a.84.84,0,0,0,1.23.64c.58-.24.54-.61.42-1.2Z"/><path class="cls-2" d="M56.35,51.75c-.34.11-.48.57-1.08-3-.84-5.12-1-4.93.51-5.4.23-.07.47-.13.49.05s-.07.42,0,.59a.18.18,0,0,0,.25.14c.13,0,.26-.23.48-.44a2.15,2.15,0,0,1,1-.57c.53-.14,1,.34,1.22.27a1.32,1.32,0,0,0,.62-.38,2.11,2.11,0,0,1,1-.57c2-.42,2.24,2.61,2.38,4.19.33,3.79-.09,3.43-.39,3.49l-.69.14c-.1,0-.38.11-.41-.12a21.11,21.11,0,0,0,0-3.73c-.24-2.37-1-2.46-1.41-2.36s-.74.14-.5,2.17c.53,4.43.48,4.45.15,4.53L59,51c-.19.05-.35.15-.37,0s0-2.76-.12-3.93c-.1-.74-.32-2.48-1.2-2.23s-.93,1.46-.65,3.28a14.61,14.61,0,0,0,.77,3.18c0,.21-.15.23-.26.26Z"/><path class="cls-2" d="M64.89,49.73c-.5.08-.52.34-.86-4s-.12-3.87.24-3.92l.61-.09c.47-.06.48,0,.49.12,0,.46-.07.94,0,2.3a31.56,31.56,0,0,0,.74,5.13c0,.4-.29.36-.53.39ZM63.71,40a.92.92,0,0,1,.81-1,.78.78,0,0,1,.93.74.89.89,0,0,1-.81.94A.75.75,0,0,1,63.71,40Z"/><path class="cls-2" d="M67.49,49.41c-.36,0-.53-4.15-.54-4.43,0-.59-.36-6.17.16-6.22l1.08-.09c.13,0,.47-.07.48.2a22.71,22.71,0,0,0-.3,5A30.91,30.91,0,0,0,69,49.14c0,.21-.26.17-.38.18Z"/><path class="cls-2" d="M69.49,47.87c0-.15,0-.51.29-.53,1.21-.06,1.52-.51,1.52-.68,0-.54-1.87-1.35-2-4.82,0-.56,0-.59.41-.61l.91,0c.15,0,.39,0,.39.21s-.09.57-.09.94a3.93,3.93,0,0,0,1.31,2.82c.43,0,.73-1.5.74-2.46,0-.63-.12-1.15-.11-1.35s.28-.18.4-.18l1,0c.21,0,.17.44.16,1,0,3.66-2.42,7.12-4.65,7.24-.24,0-.25-.17-.26-.46Z"/><path class="cls-2" d="M78.65,49.57c-.26,0-.58.17-.32-4.51.34-6.16.92-5.87,1.11-5.84q1,.12,1.92.28c1.45.21,3.83,2.51,3.26,7.14-.26,2.14-1.26,3.71-3.32,3.33Q80,49.73,78.65,49.57ZM80,45c-.2,2.8.47,3.22,1,3.32S82.74,48,83,45.76c.32-3.06-1-4.68-1.71-4.79s-1.05,1.46-1.11,2.25Z"/><path class="cls-2" d="M87.88,46.27c.31,0,.56,0,.63-.36a1.21,1.21,0,0,0-.89-1.27c-1.09-.31-1.07.8-1.31.73a1.16,1.16,0,0,1-.59-1.2c.11-.91,1.09-1.28,2.09-1a2.79,2.79,0,0,1,2.09,2.44,36.17,36.17,0,0,1-.55,4.82c-.09.54-.06.88-.13,1.29,0,.25-1,0-1.87-.32-2.41-.71-2.41-2.24-2.32-3A2.54,2.54,0,0,1,87.88,46.27Zm.32,2.34c.06-.43.21-.92-.29-1.08a1.16,1.16,0,0,0-1.45,1,1.27,1.27,0,0,0,.89,1.39c.6.18.67-.17.77-.77Z"/><path class="cls-2" d="M90.12,50.93c0-.15.11-.49.38-.39,1.15.43,1.53.12,1.57,0,.11-.51-1.49-2-.92-5.42.1-.55.09-.58.5-.42l.87.33c.14.05.38.11.33.36s-.2.5-.27.87a4.84,4.84,0,0,0,.67,3.23c.4.17,1-1.14,1.17-2.07.13-.6.12-1.15.16-1.34s.3-.06.41,0l.92.43c.19.13.07.5,0,1-.72,3.51-3.64,5.85-5.78,5.08-.23-.08-.2-.27-.16-.55Z"/><path class="cls-2" d="M95.44,52.51c.13-.56.53-1.15.61-1.11s-.12,1.92,1.23,2.65c.39.21.91.23,1.06-.37C98.67,52.46,96,51.37,96.5,49a1.65,1.65,0,0,1,2.62-1.13,3.08,3.08,0,0,1,1.63,2.23c-.06.22-.87.83-1.09.7s-.07-1.09-1-1.6c-.31-.17-.77-.23-.86.12-.28,1.19,2.57,2.79,1.89,5.17a1.76,1.76,0,0,1-2.77,1.14A2.94,2.94,0,0,1,95.44,52.51Z"/></svg>